<mxfile host="app.diagrams.net" modified="2021-08-11T14:01:30.717Z" agent="5.0 (Windows NT 10.0; Win64; x64) AppleWebKit/537.36 (KHTML, like Gecko) Chrome/91.0.4472.77 Safari/537.36" etag="0fDcp0SIKKX1-9W5Xn_m" version="14.9.1" type="github">
  <diagram id="vwVHUVMmvmnhLHMYqnXy" name="Page-1">
    <mxGraphModel dx="868" dy="450" grid="1" gridSize="10" guides="1" tooltips="1" connect="1" arrows="1" fold="1" page="1" pageScale="1" pageWidth="827" pageHeight="1169" math="0" shadow="0">
      <root>
        <mxCell id="0" />
        <mxCell id="1" parent="0" />
        <mxCell id="GcMn1Ba70IkLOk1TPg2O-1" value="1" style="rounded=0;whiteSpace=wrap;html=1;fillColor=#ffe6cc;strokeColor=#d79b00;" vertex="1" parent="1">
          <mxGeometry x="240" y="130" width="60" height="40" as="geometry" />
        </mxCell>
        <mxCell id="GcMn1Ba70IkLOk1TPg2O-2" value="7" style="rounded=0;whiteSpace=wrap;html=1;fillColor=#dae8fc;strokeColor=#6c8ebf;" vertex="1" parent="1">
          <mxGeometry x="210" y="170" width="60" height="40" as="geometry" />
        </mxCell>
        <mxCell id="GcMn1Ba70IkLOk1TPg2O-3" value="5" style="rounded=0;whiteSpace=wrap;html=1;fillColor=#ffe6cc;strokeColor=#d79b00;" vertex="1" parent="1">
          <mxGeometry x="270" y="170" width="60" height="40" as="geometry" />
        </mxCell>
        <mxCell id="GcMn1Ba70IkLOk1TPg2O-4" value="2" style="rounded=0;whiteSpace=wrap;html=1;fillColor=#dae8fc;strokeColor=#6c8ebf;" vertex="1" parent="1">
          <mxGeometry x="180" y="210" width="60" height="40" as="geometry" />
        </mxCell>
        <mxCell id="GcMn1Ba70IkLOk1TPg2O-5" value="1" style="rounded=0;whiteSpace=wrap;html=1;" vertex="1" parent="1">
          <mxGeometry x="240" y="210" width="60" height="40" as="geometry" />
        </mxCell>
        <mxCell id="GcMn1Ba70IkLOk1TPg2O-6" value="10" style="rounded=0;whiteSpace=wrap;html=1;fillColor=#ffe6cc;strokeColor=#d79b00;" vertex="1" parent="1">
          <mxGeometry x="300" y="210" width="60" height="40" as="geometry" />
        </mxCell>
        <mxCell id="GcMn1Ba70IkLOk1TPg2O-7" value="1" style="rounded=0;whiteSpace=wrap;html=1;" vertex="1" parent="1">
          <mxGeometry x="150" y="250" width="60" height="40" as="geometry" />
        </mxCell>
        <mxCell id="GcMn1Ba70IkLOk1TPg2O-8" value="2" style="rounded=0;whiteSpace=wrap;html=1;fillColor=#dae8fc;strokeColor=#6c8ebf;" vertex="1" parent="1">
          <mxGeometry x="210" y="250" width="60" height="40" as="geometry" />
        </mxCell>
        <mxCell id="GcMn1Ba70IkLOk1TPg2O-9" value="2" style="rounded=0;whiteSpace=wrap;html=1;" vertex="1" parent="1">
          <mxGeometry x="270" y="250" width="60" height="40" as="geometry" />
        </mxCell>
        <mxCell id="GcMn1Ba70IkLOk1TPg2O-10" value="40" style="rounded=0;whiteSpace=wrap;html=1;fillColor=#ffe6cc;strokeColor=#d79b00;" vertex="1" parent="1">
          <mxGeometry x="330" y="250" width="60" height="40" as="geometry" />
        </mxCell>
      </root>
    </mxGraphModel>
  </diagram>
</mxfile>
